<?xml version="1.0" encoding="utf-8"?>
<!-- Generator: Adobe Illustrator 16.0.0, SVG Export Plug-In . SVG Version: 6.00 Build 0)  -->
<!DOCTYPE svg PUBLIC "-//W3C//DTD SVG 1.1//EN" "http://www.w3.org/Graphics/SVG/1.1/DTD/svg11.dtd">
<svg version="1.1" id="Capa_1" xmlns="http://www.w3.org/2000/svg" xmlns:xlink="http://www.w3.org/1999/xlink" x="0px" y="0px"
	 width="24px" height="24px" viewBox="0 0 24 24" enable-background="new 0 0 24 24" xml:space="preserve">
<g>
	<g>
		<path fill="#F5BA09" d="M18.852,11.922c-0.317,0-0.633,0-0.955,0c-0.088,0-0.233-0.006-0.233-0.093c0-0.323,0-0.642,0-0.966
			c0-0.086,0.004-0.2-0.082-0.2c-0.324,0-0.64,0-0.962,0c-0.086,0-0.214-0.027-0.214-0.114c0-0.321,0-0.637,0-0.96
			c0-0.087-0.013-0.185-0.099-0.185c-0.324,0-0.641,0-0.959,0c-0.088,0-0.201-0.044-0.201-0.13c0-0.328,0-0.647,0-0.965
			c0-0.087-0.049-0.157-0.135-0.156c-0.314,0.002-0.636,0.003-0.963,0.003c-0.086,0-0.161,0.071-0.161,0.157
			c0,0.325,0,0.642,0,0.957c0,0.086-0.039,0.134-0.126,0.134c-1.182,0-2.349,0-3.53,0c-0.087,0-0.12-0.048-0.12-0.134
			c0-0.32,0-0.637,0-0.958c0-0.086-0.089-0.157-0.176-0.157c-0.322,0-0.625,0-0.936-0.003c-0.087,0-0.146,0.069-0.146,0.157
			c0,0.321,0,0.643,0,0.974c0,0.087-0.112,0.122-0.199,0.122c-0.324,0-0.643,0-0.966,0c-0.086,0-0.093,0.106-0.093,0.192
			c0,0.324,0,0.64,0,0.961c0,0.088-0.134,0.105-0.221,0.105c-0.323,0-0.641,0-0.963,0c-0.087,0-0.232,0.123-0.232,0.21
			c0,0.322,0,0.639,0,0.963c0,0.087,0.004,0.086-0.083,0.086c-0.32,0-0.635,0-0.948,0c-0.087,0-0.228,0.142-0.228,0.229
			c0,1.172,0,2.331,0,3.488c0,0.088,0.141,0.216,0.228,0.216c0.316,0,0.629,0,0.948,0c0.087,0,0.083-0.128,0.083-0.216
			c0-0.744,0-1.481,0-2.221c0-0.086,0.145-0.081,0.231-0.081c0.325,0,0.645,0,0.973,0c0.087,0,0.212-0.005,0.212,0.081
			c0,0.747,0,1.487,0,2.235c0,0.086,0.043,0.157,0.13,0.157c0.323,0,0.649,0,0.96,0.003c0.087,0.001,0.169-0.069,0.169-0.157
			c0-0.318,0-0.638,0-0.958c0-0.087,0.02-0.102,0.106-0.102c2.034,0,4.055,0,6.081,0c0.087,0,0.157,0.042,0.157,0.129
			c0,0.322-0.001,0.648-0.003,0.964c0,0.086,0.068,0.165,0.156,0.165c0.316,0,0.633,0,0.957,0c0.087,0,0.097-0.115,0.097-0.201
			c0-0.752,0-1.491,0-2.232c0-0.087,0.132-0.084,0.218-0.084c0.329,0,0.651,0,0.979,0c0.087,0,0.22-0.003,0.22,0.084
			c0,0.744,0,1.481,0,2.218c0,0.088,0.008,0.216,0.096,0.216c0.316,0,0.627,0,0.935,0c0.087,0,0.228-0.128,0.228-0.216
			c0-1.166,0-2.326,0-3.495C19.079,12.057,18.939,11.922,18.852,11.922z M10.112,11.822c0,0.086-0.098,0.1-0.185,0.1
			c-0.319,0-0.638,0-0.961,0c-0.087,0-0.112-0.014-0.112-0.1c0-0.318,0-0.635,0-0.959c0-0.088,0.025-0.2,0.112-0.2
			c0.322,0,0.64,0,0.961,0c0.087,0,0.186,0.112,0.186,0.2C10.112,11.183,10.112,11.5,10.112,11.822z M15.146,11.824
			c0,0.087-0.026,0.098-0.113,0.098c-0.317,0-0.635,0-0.959,0c-0.087,0-0.187-0.011-0.187-0.098c0-0.321,0-0.639,0-0.96
			c0-0.087,0.1-0.201,0.187-0.201c0.32,0,0.637,0,0.959,0c0.087,0,0.113,0.114,0.113,0.201
			C15.146,11.183,15.146,11.502,15.146,11.824z"/>
		<path fill="#F5BA09" d="M11.202,15.822c-0.236,0-0.475,0-0.708-0.002c-0.509-0.001-1.021-0.002-1.53-0.005
			c-0.087,0-0.158,0.07-0.157,0.156c0.002,0.315,0.002,0.65,0.002,0.965c0,0.087,0.07,0.176,0.157,0.176c0.756,0,1.491,0,2.225,0
			c0.087,0,0.181-0.107,0.181-0.195c0-0.313,0-0.622,0-0.938C11.371,15.892,11.289,15.82,11.202,15.822z"/>
		<path fill="#F5BA09" d="M15.096,15.818c-0.023,0.001-0.037,0.02-0.063,0.02c-0.748,0-1.486,0.017-2.235,0.017
			c-0.024,0-0.048,0-0.071,0c-0.039,0-0.098,0.037-0.098,0.124c0,0.321,0,0.632,0,0.941c0,0.087,0.097,0.192,0.185,0.192
			c0.739,0,1.475,0,2.223,0c0.087,0,0.109-0.105,0.109-0.192c0-0.32,0-0.637,0-0.953C15.146,15.88,15.137,15.814,15.096,15.818z"/>
		<path fill="#F5BA09" d="M7.703,8.145c0.32,0,0.637,0,0.953,0c0.087,0,0.156-0.068,0.156-0.154
			C8.809,7.676,8.808,7.359,8.808,7.044c0-0.087-0.07-0.157-0.158-0.157c-0.326,0-0.638,0-0.948,0c-0.086,0-0.107,0.073-0.107,0.16
			c0,0.314,0,0.625,0,0.946C7.595,8.08,7.616,8.145,7.703,8.145z"/>
		<path fill="#F5BA09" d="M15.328,8.153c0.314-0.002,0.618-0.002,0.933-0.002c0.087,0,0.145-0.071,0.145-0.158
			c0-0.326,0-0.637,0-0.948c0-0.087-0.021-0.158-0.108-0.158c-0.314,0-0.625,0-0.945,0c-0.087,0-0.205,0.071-0.205,0.159
			c0,0.32,0,0.636,0,0.953C15.146,8.085,15.24,8.155,15.328,8.153z"/>
	</g>
</g>
</svg>
