<?xml version="1.0" encoding="utf-8"?>
<!-- Generator: Adobe Illustrator 16.0.0, SVG Export Plug-In . SVG Version: 6.00 Build 0)  -->
<!DOCTYPE svg PUBLIC "-//W3C//DTD SVG 1.1//EN" "http://www.w3.org/Graphics/SVG/1.1/DTD/svg11.dtd">
<svg version="1.1" id="Capa_1" xmlns="http://www.w3.org/2000/svg" xmlns:xlink="http://www.w3.org/1999/xlink" x="0px" y="0px"
	 width="24px" height="24px" viewBox="0 0 24 24" enable-background="new 0 0 24 24" xml:space="preserve">
<g>
	<path fill="#FFC107" d="M15.195,10.083h-2.064l2.355-5.302c0.07-0.163-0.002-0.351-0.164-0.422
		c-0.039-0.017-0.082-0.026-0.127-0.026H8.807c-0.177,0-0.32,0.142-0.32,0.318c0,0.009,0,0.018,0.001,0.026l0.639,8.306
		c0.013,0.167,0.152,0.294,0.32,0.294h0.989l0.61,6.102c0.018,0.175,0.174,0.304,0.35,0.286c0.115-0.014,0.216-0.087,0.262-0.191
		l3.832-8.946c0.068-0.162-0.004-0.35-0.166-0.419C15.281,10.091,15.24,10.083,15.195,10.083z"/>
</g>
</svg>
